<?xml version="1.0" encoding="iso-8859-1"?>
<!-- Generator: Adobe Illustrator 28.2.0, SVG Export Plug-In . SVG Version: 6.00 Build 0)  -->
<svg version="1.1" id="Layer_1" xmlns="http://www.w3.org/2000/svg" xmlns:xlink="http://www.w3.org/1999/xlink" x="0px" y="0px"
	 viewBox="0 0 3000 3000" style="enable-background:new 0 0 3000 3000;" xml:space="preserve">
<g>
	<g>
		<path style="fill:#0E233E;" d="M422.342,1405.869v-94.389h397.959v94.389H672.19v436.675h-99.091v-436.675H422.342z"/>
		<path style="fill:#0E233E;" d="M1102.206,1459.666h100.052v381.979h-100.052v-53.96c-26.782,42.599-69.379,63.9-127.804,63.9
			c-54.533,0-100.052-19.292-136.567-57.865c-36.515-38.572-54.773-86.265-54.773-143.064
			c-0.981-56.323,17.162-104.125,54.408-143.419c37.245-39.283,82.89-58.453,136.932-57.51c58.904,0,101.512,21.067,127.804,63.19
			V1459.666z M1070.803,1730.19c20.928-20.405,31.403-47.38,31.403-80.944c0-33.553-10.475-60.538-31.403-80.944
			c-20.939-20.406-47.721-30.609-80.333-30.609c-32.624,0-59.646,10.66-81.064,31.97c-20.448,20.863-30.672,47.391-30.672,79.583
			c0,32.203,10.338,58.837,31.038,79.923c20.688,21.087,47.584,31.63,80.699,31.63
			C1023.082,1760.799,1049.864,1750.596,1070.803,1730.19z"/>
		<path style="fill:#0E233E;" d="M1659.109,1625.666v216.963h-99.468v-209.826c0.064-55.962-25.408-96.203-82.201-96.203
			c-28.166,0-46.586,7.731-66.359,26.975c-19.31,18.794-27.109,46.156-27.109,78.506v200.547h-98.764v-383.966h95.764v54.954
			c11.266-19.983,27.341-35.796,48.234-47.46c20.882-11.653,44.471-17.485,70.767-17.485c49.752,0,88.722,15.59,116.888,46.747
			C1645.027,1526.586,1659.109,1569.999,1659.109,1625.666z"/>
		<path style="fill:#0E233E;" d="M2264.896,1272.672v569.957h-104.591v-569.957H2264.896z"/>
		<path style="fill:#0E233E;" d="M2498.258,1470.632c-18.52,12.61-38.51,38.24-48,60.25v-74.46h-100.08v386.21h100.08v-177.94
			c0-31.59,9.38-57.55,28.14-77.89c18.76-20.34,43.06-30.51,72.9-30.51c9.1,0,17.89,0.67,26.36,2.02v-109.07
			C2555.048,1449.242,2527.878,1450.462,2498.258,1470.632z"/>
		<polygon style="fill:#0E233E;" points="1950.369,1643.159 2106.926,1459.101 1988.976,1459.101 1851.056,1613.863 
			1841.398,1613.863 1841.398,1312.842 1741.765,1312.842 1741.765,1842.629 1841.398,1842.629 1841.398,1663.912 
			1994.768,1842.629 2122.45,1842.629 		"/>
	</g>
	<path style="fill:#35AE9B;" d="M1977.067,1148.416c1.065,10.749,2.61,36.596-7.064,54.383
		c-15.83,29.106-58.696,55.403-61.645,110.042c-1.419,26.298,10.325,63.83,66.24,82.213c-3.382-4.072-25.416-28.409-18.638-62.298
		c7.149-35.745,30.061-54.991,34.213-57.957c-1,4.884-2.951,17.741,3.064,32.17c5.1,12.237,13.342,19.398,17.362,22.468
		c1.674-1.634,4.461-4.785,6.255-9.574c2.1-5.604,1.74-10.509,1.404-12.894c3.48,3.427,18.11,18.596,19.404,42.979
		c1.368,25.781-13.171,43.052-16.17,46.468c36.613-13.193,63.386-44.852,69.787-82.723c9.234-54.629-28.976-92.279-32.17-95.319
		c0.732,2.579,4.212,15.818-3.404,28.426c-4.072,6.74-9.579,10.427-12.681,12.17c-0.434-12.033-2.925-36.275-17.787-62.043
		C2009.256,1169.221,1987.509,1154.551,1977.067,1148.416z"/>
</g>
</svg>
